<svg id="Layer_1" data-name="Layer 1" xmlns="http://www.w3.org/2000/svg" viewBox="0 0 50 50"><defs><style>.cls-1{fill:#c3c3c3;}</style></defs><title>refresh</title><path class="cls-1" d="M47.75,24.86A22,22,0,0,1,41.06,41a22,22,0,0,1-16.14,6.68A22,22,0,0,1,8.77,41,22,22,0,0,1,2.1,24.86,23,23,0,0,1,8.76,8.69L12,11.9a18.41,18.41,0,0,0-5.34,13A17.54,17.54,0,0,0,12,37.75a17.59,17.59,0,0,0,12.92,5.34,17.61,17.61,0,0,0,12.9-5.35,17.53,17.53,0,0,0,5.37-12.88,17.86,17.86,0,0,0-5.74-13.17L31,18.13V2H47.16L40.69,8.45A22.22,22.22,0,0,1,47.75,24.86Z"/></svg>